<svg xmlns="http://www.w3.org/2000/svg" xmlns:xlink="http://www.w3.org/1999/xlink" version="1.1" width="109" height="102" enable-background="new 71.07 323.663 469.86 110.329" xml:space="preserve"><rect id="backgroundrect" width="100%" height="100%" x="0" y="0" fill="none" stroke="none"/>






<g class="currentLayer" style=""><title>Layer 1</title><path fill="#2C2255" d="M30.054007934570308,65.21099389648435 H13.310007934570308 c2.217,7.605 6.331,14.422 12.354,20.445 c9.602,9.604 21.148,14.398 34.65,14.398 c2.6990000000000003,0 5.314,-0.201 7.854,-0.5840000000000001 c10.17,-1.5350000000000001 19.074,-6.133 26.703,-13.814 c6.062,-6.021 10.205,-12.84 12.439,-20.445 h-6.795 h-9.936 H30.054007934570308 z" id="svg_1" class=""/><g id="svg_2" class="">
	<path fill="#2C2255" d="M20.821007934570318,42.46899389648439 h-8.747 c-0.32000000000000006,1.9220000000000002 -0.538,3.8840000000000003 -0.6370000000000001,5.896 h10.396 h5.215 h75.275 h6.871 c-0.1,-2.012 -0.31800000000000006,-3.974 -0.6410000000000001,-5.896 " id="svg_3"/>
	<path fill="#2C2255" d="M11.437007934570318,53.83999389648437 c0.09900000000000003,2.013 0.31600000000000006,3.975 0.6370000000000001,5.896 h9.094 h6.893 h73.648 h6.846 c0.32200000000000006,-1.921 0.542,-3.883 0.6420000000000001,-5.896 " id="svg_4"/>
</g><path fill="#2C2255" d="M107.31200793457032,36.99299389648439 c-2.232,-7.626 -6.376,-14.474 -12.441,-20.54 c-7.609,-7.6080000000000005 -16.488,-12.174 -26.625,-13.71 c-2.564,-0.38900000000000007 -5.205,-0.5930000000000001 -7.932,-0.5930000000000001 c-13.502,0 -25.049,4.769 -34.65,14.303 c-6.025,6.066 -10.141,12.914 -12.357,20.54 " id="svg_5" class=""/><g id="svg_6" class="">
	<path fill="#F7941E" d="M8.530007934570307,51.10399389648438 c0,-25.824 19.395,-47.281 44.626,-51.055 c-0.6260000000000001,-0.023000000000000007 -1.255,-0.04900000000000001 -1.887,-0.04900000000000001 c-28.314,0 -51.269,22.881 -51.269,51.104 c0,28.224 22.954,51.103 51.269,51.103 c0.6340000000000001,0 1.263,-0.023000000000000007 1.891,-0.04700000000000001 C27.925007934570317,98.38599389648436 8.530007934570307,76.92899389648437 8.530007934570307,51.10399389648438 z" id="svg_7"/>
</g><g id="svg_8" class="">
	
		<linearGradient id="SVGID_1_" x1="0.4999893932661574" y1="10.894055383022774" x2="0.4999893932661574" y2="-1.5949120082815735" transform="translate(-71.06999206542969,-327.7250061035156) ">
		<stop offset="0.3033" style="stop-color:#473788"/>
		<stop offset="0.872" style="stop-color:#2C2255"/>
	</linearGradient>
	<path fill="url(#SVGID_1_)" d="M93.5830079345703,48.363993896484374 c-0.16400000000000003,-2.021 -0.504,-3.992 -1.012,-5.896 h-64.51 c-0.508,1.9020000000000001 -0.8490000000000001,3.874 -1.013,5.896 H93.5830079345703 z" id="svg_9"/>
	
		<linearGradient id="SVGID_2_" x1="0.4999956425736153" y1="8.965456780538302" x2="0.4999956425736153" y2="-3.5235106107660457" transform="translate(-71.06999206542969,-327.7250061035156) ">
		<stop offset="0.3033" style="stop-color:#473788"/>
		<stop offset="0.872" style="stop-color:#2C2255"/>
	</linearGradient>
	<path fill="url(#SVGID_2_)" d="M93.5830079345703,53.83999389648437 H27.049007934570312 c0.16400000000000003,2.021 0.503,3.991 1.012,5.896 h64.511 C93.08000793457032,57.83199389648439 93.41900793457032,55.86099389648439 93.5830079345703,53.83999389648437 z" id="svg_10"/>
	
		<linearGradient id="SVGID_3_" x1="0.4999952100421718" y1="2.1516718106995887" x2="0.4999952100421718" y2="-1.6670864988920544" transform="translate(-71.06999206542969,-327.7250061035156) ">
		<stop offset="0.3033" style="stop-color:#473788"/>
		<stop offset="0.8631" style="stop-color:#2C2255"/>
	</linearGradient>
	<path fill="url(#SVGID_3_)" d="M60.31600793457031,84.49199389648436 c13.397,0 24.945,-7.893 30.263,-19.281 h-60.526 C35.371007934570315,76.59899389648439 46.91900793457032,84.49199389648436 60.31600793457031,84.49199389648436 z" id="svg_11"/>
</g><g id="svg_12" class="">
	<path fill="#FFFFFF" d="M22.118007934570315,53.83999389648437 h4.884 h66.706 h8.763 h6.657 c0.04600000000000001,-0.8710000000000001 0.07200000000000001,-1.7480000000000002 0.07200000000000001,-2.632 c0,-0.9550000000000001 -0.035,-1.901 -0.08900000000000002,-2.845 h-6.641 h-8.763 H27.00100793457031 h-5.229 H11.437007934570318 c-0.05400000000000001,0.9420000000000001 -0.08900000000000002,1.8900000000000001 -0.08900000000000002,2.845 c0,0.8840000000000001 0.026000000000000006,1.7610000000000001 0.07200000000000001,2.632 H22.118007934570315 z" id="svg_13"/>
	<path fill="#FFFFFF" d="M29.85800793457031,36.99299389648439 H13.306007934570317 c-0.544,1.783 -0.8950000000000001,3.612 -1.232,5.477 h8.525 h7.259 h64.679 h9.16 h6.547 c-0.3380000000000001,-1.863 -0.773,-3.692 -1.316,-5.477 " id="svg_14"/>
	<path fill="#FFFFFF" d="M101.95600793457032,59.734993896484355 h-9.16 H28.118007934570315 h-6.912 h-9.133 c0.32800000000000007,1.863 0.7010000000000001,3.6910000000000003 1.236,5.476 h16.807 h60.682 h9.962 h6.488 c0.534,-1.783 0.9650000000000001,-3.611 1.294,-5.476 H101.95600793457032 z" id="svg_15"/>
</g></g></svg>